<svg width="15" height="20" viewBox="0 0 15 20" fill="none" xmlns="http://www.w3.org/2000/svg">
<g id="Vector">
<path d="M7.5 10C6.51109 10 5.54439 9.70676 4.72215 9.15735C3.8999 8.60794 3.25904 7.82705 2.8806 6.91342C2.50216 5.99979 2.40315 4.99446 2.59607 4.02455C2.789 3.05465 3.2652 2.16373 3.96447 1.46447C4.66373 0.765206 5.55464 0.289002 6.52455 0.0960758C7.49445 -0.0968503 8.49979 0.00216643 9.41342 0.380605C10.327 0.759043 11.1079 1.39991 11.6573 2.22215C12.2068 3.0444 12.5 4.0111 12.5 5C12.4987 6.32568 11.9715 7.59668 11.0341 8.53407C10.0967 9.47147 8.82568 9.99868 7.5 10ZM7.5 1.66667C6.84073 1.66667 6.19626 1.86217 5.6481 2.22844C5.09994 2.59471 4.67269 3.1153 4.4204 3.72439C4.16811 4.33348 4.1021 5.0037 4.23072 5.6503C4.35933 6.29691 4.6768 6.89085 5.14298 7.35703C5.60915 7.8232 6.2031 8.14067 6.8497 8.26929C7.4963 8.3979 8.16652 8.33189 8.77561 8.0796C9.3847 7.82731 9.90529 7.40007 10.2716 6.8519C10.6378 6.30374 10.8333 5.65927 10.8333 5C10.8333 4.11595 10.4821 3.2681 9.85702 2.64298C9.2319 2.01786 8.38406 1.66667 7.5 1.66667Z" fill="white"/>
<path d="M7.5 11.6667C9.48845 11.6689 11.3948 12.4598 12.8009 13.8658C14.2069 15.2718 14.9978 17.1782 15 19.1667C15 19.3877 14.9122 19.5996 14.7559 19.7559C14.5996 19.9122 14.3877 20 14.1667 20C13.9457 20 13.7337 19.9122 13.5774 19.7559C13.4211 19.5996 13.3333 19.3877 13.3333 19.1667C13.3333 17.6196 12.7188 16.1358 11.6248 15.0419C10.5308 13.9479 9.0471 13.3333 7.5 13.3333C5.9529 13.3333 4.46917 13.9479 3.37521 15.0419C2.28125 16.1358 1.66667 17.6196 1.66667 19.1667C1.66667 19.3877 1.57887 19.5996 1.42259 19.7559C1.26631 19.9122 1.05435 20 0.833333 20C0.61232 20 0.400357 19.9122 0.244077 19.7559C0.0877967 19.5996 0 19.3877 0 19.1667C0.00220571 17.1782 0.79309 15.2718 2.19913 13.8658C3.60518 12.4598 5.51155 11.6689 7.5 11.6667Z" fill="white"/>
</g>
</svg>
