<svg width="15" height="20" viewBox="0 0 15 20" fill="none" xmlns="http://www.w3.org/2000/svg">
<path id="Vector" d="M3.89243 18.5696C3.74996 18.5695 3.61143 18.5098 3.49804 18.3995C3.38465 18.2892 3.30264 18.1345 3.26456 17.959C3.22649 17.7835 3.23445 17.5968 3.28722 17.4277C3.33999 17.2585 3.43467 17.116 3.55677 17.0222C5.86602 15.249 5.86602 11.4409 5.86602 9.16607C5.86602 8.50308 6.07203 7.86723 6.43873 7.39843C6.80543 6.92962 7.30278 6.66624 7.82137 6.66624C8.33996 6.66624 8.8373 6.92962 9.204 7.39843C9.5707 7.86723 9.77671 8.50308 9.77671 9.16607C9.77671 9.38707 9.70804 9.59902 9.58581 9.75528C9.46357 9.91155 9.29779 9.99935 9.12493 9.99935C8.95206 9.99935 8.78628 9.91155 8.66405 9.75528C8.54182 9.59902 8.47315 9.38707 8.47315 9.16607C8.47315 8.94507 8.40448 8.73313 8.28224 8.57686C8.16001 8.42059 7.99423 8.33279 7.82137 8.33279C7.6485 8.33279 7.48272 8.42059 7.36049 8.57686C7.23826 8.73313 7.16959 8.94507 7.16959 9.16607C7.16959 11.6217 7.16959 16.1939 4.22745 18.4513C4.12621 18.5287 4.01042 18.5696 3.89243 18.5696ZM7.12722 19.7537C8.61458 17.8371 9.48341 15.1423 9.70892 11.7367C9.71653 11.6275 9.70718 11.5174 9.68144 11.4128C9.65569 11.3081 9.61403 11.2111 9.55887 11.1271C9.5037 11.0431 9.43611 10.9738 9.35997 10.9233C9.28383 10.8728 9.20063 10.842 9.11515 10.8326C9.02962 10.8214 8.9432 10.8323 8.86104 10.8647C8.77888 10.8971 8.70266 10.9503 8.63691 11.0211C8.57117 11.0919 8.51725 11.179 8.47836 11.277C8.43948 11.375 8.41643 11.4821 8.41058 11.5917C8.20787 14.639 7.4857 16.9247 6.20234 18.5754C6.08048 18.7322 6.01232 18.9445 6.01287 19.1655C6.01342 19.3866 6.08263 19.5983 6.20528 19.7541C6.32792 19.9099 6.49396 19.997 6.66686 19.9963C6.83975 19.9956 7.00535 19.9071 7.12722 19.7503V19.7537ZM10.5165 19.5987C10.9118 18.7588 11.2411 17.8709 11.4994 16.948C11.5534 16.7416 11.542 16.5164 11.4678 16.3205C11.3936 16.1246 11.2624 15.9736 11.1022 15.8998C10.9421 15.826 10.7657 15.8353 10.6108 15.9256C10.4559 16.0159 10.3348 16.1801 10.2734 16.3831C10.0439 17.2014 9.75177 17.9888 9.40128 18.7337C9.35686 18.8274 9.32729 18.9312 9.31428 19.0395C9.30126 19.1477 9.30504 19.2581 9.3254 19.3645C9.34577 19.4708 9.38232 19.571 9.43297 19.6593C9.48362 19.7476 9.54738 19.8223 9.62061 19.8791C9.76849 19.9938 9.94596 20.0287 10.114 19.9761C10.1972 19.95 10.2755 19.9033 10.3446 19.8386C10.4136 19.7738 10.4721 19.6923 10.5165 19.5987ZM12.0579 14.3249C12.2994 12.6232 12.4086 10.8952 12.3838 9.16607C12.3832 7.98557 12.1024 6.83309 11.5786 5.86093C11.0548 4.88878 10.3125 4.14271 9.44998 3.72132C8.58743 3.29993 7.64517 3.22305 6.74773 3.50085C5.85028 3.77864 5.03988 4.39804 4.42363 5.27717C4.36362 5.358 4.31689 5.45341 4.28623 5.55773C4.25556 5.66206 4.24158 5.77319 4.2451 5.88454C4.24863 5.9959 4.26959 6.10522 4.30675 6.20604C4.3439 6.30686 4.3965 6.39712 4.46143 6.47149C4.52636 6.54586 4.6023 6.60282 4.68475 6.639C4.7672 6.67518 4.85449 6.68985 4.94146 6.68213C5.02842 6.67442 5.1133 6.64448 5.19105 6.59409C5.2688 6.5437 5.33786 6.47388 5.39414 6.38876C5.83427 5.76071 6.41311 5.31818 7.05416 5.11966C7.69521 4.92114 8.36829 4.97598 8.98444 5.27693C9.60059 5.57788 10.1308 6.11077 10.505 6.80518C10.8792 7.49958 11.0798 8.32281 11.0803 9.16607C11.1043 10.7883 11.0034 12.4096 10.7791 14.0066C10.7462 14.2234 10.782 14.448 10.8785 14.6311C10.9751 14.8142 11.1245 14.9408 11.2941 14.9832C11.3355 14.9938 11.3776 14.9991 11.4198 14.999C11.5708 14.9985 11.717 14.931 11.8333 14.8081C11.9497 14.6851 12.0291 14.5143 12.0579 14.3249ZM4.56246 9.16607C4.56227 8.9335 4.57732 8.70131 4.60744 8.47195C4.6269 8.36153 4.62856 8.2472 4.61232 8.13594C4.59608 8.02467 4.56228 7.9188 4.51298 7.82478C4.46369 7.73077 4.39992 7.65058 4.32558 7.58911C4.25125 7.52763 4.16789 7.48617 4.0806 7.46724C3.99332 7.44831 3.90393 7.45231 3.81789 7.479C3.73185 7.5057 3.65097 7.55452 3.58018 7.62249C3.50939 7.69046 3.45017 7.77616 3.40614 7.87436C3.36211 7.97256 3.33419 8.08119 3.32408 8.19364C3.28106 8.51487 3.25925 8.84016 3.2589 9.16607C3.2589 13.0366 2.38161 14.999 0.651781 14.999C0.478918 14.999 0.313135 15.0868 0.190902 15.2431C0.0686695 15.3993 0 15.6113 0 15.8323C0 16.0533 0.0686695 16.2652 0.190902 16.4215C0.313135 16.5778 0.478918 16.6655 0.651781 16.6655C3.17352 16.6655 4.56246 13.9991 4.56246 9.16607ZM13.4919 19.5103C14.5645 16.239 15.0757 12.7115 14.991 9.16607C14.994 7.78194 14.7487 6.41535 14.274 5.17135C14.2365 5.07286 14.1843 4.98477 14.1202 4.91211C14.0561 4.83944 13.9815 4.78362 13.9005 4.74783C13.8196 4.71205 13.7339 4.69699 13.6484 4.70353C13.5629 4.71008 13.4793 4.73808 13.4022 4.78596C13.3252 4.83383 13.2563 4.90064 13.1995 4.98256C13.1426 5.06447 13.099 5.1599 13.071 5.26339C13.043 5.36689 13.0312 5.47641 13.0363 5.58572C13.0414 5.69503 13.0633 5.80198 13.1008 5.90046C13.4886 6.91754 13.6893 8.03458 13.6874 9.16607C13.7694 12.4731 13.2986 15.7645 12.3063 18.8204C12.2709 18.9202 12.2513 19.0279 12.2486 19.1374C12.2459 19.2468 12.26 19.3559 12.2903 19.4584C12.3206 19.5609 12.3663 19.6547 12.425 19.7345C12.4837 19.8144 12.5541 19.8786 12.6322 19.9237C12.7166 19.9733 12.8084 19.9989 12.9013 19.9986C13.026 19.998 13.1479 19.9516 13.2525 19.8651C13.3572 19.7785 13.4403 19.6554 13.4919 19.5103ZM1.95534 11.6659V9.16607C1.95707 7.17776 2.57565 5.27152 3.67537 3.86557C4.77509 2.45963 6.26613 1.6688 7.82137 1.66659C9.09128 1.66118 10.3276 2.18804 11.341 3.16649C11.4793 3.29909 11.6531 3.35602 11.8242 3.32477C11.9954 3.29351 12.1498 3.17663 12.2535 2.99983C12.3572 2.82303 12.4017 2.6008 12.3773 2.38203C12.3528 2.16325 12.2614 1.96585 12.1231 1.83325C10.8843 0.63785 9.37342 -0.00602858 7.82137 4.25424e-05C5.92056 0.0029094 4.09825 0.969534 2.75418 2.68788C1.41011 4.40622 0.654023 6.73597 0.651781 9.16607V11.6659C0.651781 11.8869 0.72045 12.0988 0.842683 12.2551C0.964915 12.4114 1.1307 12.4992 1.30356 12.4992C1.47642 12.4992 1.64221 12.4114 1.76444 12.2551C1.88667 12.0988 1.95534 11.8869 1.95534 11.6659Z" fill="white"/>
</svg>
