<svg width="15" height="20" viewBox="0 0 15 20" fill="none" xmlns="http://www.w3.org/2000/svg">
<g id="Vector">
<path d="M12.75 7.02V5.83334C12.75 4.28624 12.1969 2.8025 11.2123 1.70854C10.2277 0.614582 8.89239 0 7.5 0C6.10762 0 4.77226 0.614582 3.7877 1.70854C2.80312 2.8025 2.25001 4.28624 2.25001 5.83334V7.02C1.58202 7.34393 1.01347 7.8771 0.613875 8.55434C0.214279 9.23159 0.000958897 10.0235 0 10.8333V15.8334C0.00119091 16.9379 0.396661 17.9971 1.09967 18.7781C1.80267 19.5593 2.75581 19.9987 3.75 20H11.25C12.2442 19.9987 13.1974 19.5593 13.9003 18.7781C14.6033 17.9971 14.9988 16.9379 15 15.8334V10.8333C14.9991 10.0235 14.7857 9.23159 14.3861 8.55434C13.9866 7.8771 13.418 7.34393 12.75 7.02ZM3.75 5.83334C3.75 4.72826 4.14509 3.66846 4.84834 2.88706C5.55162 2.10565 6.50544 1.66666 7.5 1.66666C8.49456 1.66666 9.44839 2.10565 10.1516 2.88706C10.8549 3.66846 11.25 4.72826 11.25 5.83334V6.66666H3.75V5.83334ZM13.5 15.8334C13.5 16.4963 13.263 17.1322 12.841 17.601C12.419 18.07 11.8467 18.3334 11.25 18.3334H3.75C3.15326 18.3334 2.58097 18.07 2.15901 17.601C1.73706 17.1322 1.5 16.4963 1.5 15.8334V10.8333C1.5 10.1703 1.73706 9.53441 2.15901 9.06556C2.58097 8.59672 3.15326 8.33334 3.75 8.33334H11.25C11.8467 8.33334 12.419 8.59672 12.841 9.06556C13.263 9.53441 13.5 10.1703 13.5 10.8333V15.8334Z" fill="#F1F0F5"/>
<path d="M7.5 11.6667C7.30108 11.6667 7.11032 11.7545 6.96967 11.9108C6.82902 12.067 6.75001 12.279 6.75001 12.5V14.1667C6.75001 14.3877 6.82902 14.5996 6.96967 14.7559C7.11032 14.9122 7.30108 15 7.5 15C7.69891 15 7.88968 14.9122 8.03033 14.7559C8.17099 14.5996 8.25 14.3877 8.25 14.1667V12.5C8.25 12.279 8.17099 12.067 8.03033 11.9108C7.88968 11.7545 7.69891 11.6667 7.5 11.6667Z" fill="#F1F0F5"/>
</g>
</svg>
