<svg width="15" height="20" viewBox="0 0 15 20" fill="none" xmlns="http://www.w3.org/2000/svg">
<g id="Vector">
<path d="M12.4357 1.78351L7.737 0.0427C7.58315 -0.0142333 7.41685 -0.0142333 7.263 0.0427L2.56425 1.78351C1.81718 2.05924 1.16731 2.58954 0.706984 3.29908C0.246655 4.00861 -0.000721255 4.86128 1.57959e-06 5.73595V10C1.57959e-06 16.3025 6.9 19.7832 7.1955 19.9282C7.29137 19.9755 7.3951 20 7.5 20C7.6049 20 7.70863 19.9755 7.8045 19.9282C8.1 19.7832 15 16.3025 15 10V5.73595C15.0007 4.86128 14.7533 4.00861 14.293 3.29908C13.8327 2.58954 13.1828 2.05924 12.4357 1.78351ZM13.5 10C13.5 14.5458 8.76075 17.5274 7.5 18.2408C6.23775 17.5299 1.5 14.5575 1.5 10V5.73595C1.50005 5.21118 1.64871 4.69974 1.92492 4.27409C2.20114 3.84843 2.59091 3.53014 3.039 3.36432L7.5 1.71184L11.961 3.36432C12.4091 3.53014 12.7989 3.84843 13.0751 4.27409C13.3513 4.69974 13.5 5.21118 13.5 5.73595V10Z" fill="white"/>
<path d="M9.975 6.91676L6.834 10.4167L5.151 8.46674C5.08346 8.38469 5.00182 8.31848 4.9109 8.27203C4.81997 8.22558 4.7216 8.19981 4.62157 8.19625C4.52155 8.19269 4.42189 8.21141 4.32848 8.25131C4.23507 8.2912 4.14978 8.35147 4.07765 8.42855C4.00553 8.50563 3.94801 8.59797 3.9085 8.70013C3.86899 8.80229 3.84828 8.91221 3.84759 9.0234C3.8469 9.13459 3.86624 9.24481 3.90448 9.34757C3.94272 9.45033 3.99909 9.54354 4.07025 9.62172L5.79975 11.6217C5.92873 11.7765 6.08463 11.9006 6.25801 11.9865C6.4314 12.0725 6.61867 12.1185 6.8085 12.1217H6.83325C7.01929 12.1224 7.2036 12.082 7.37548 12.0029C7.54736 11.9238 7.70339 11.8075 7.8345 11.6609L11.0385 8.10091C11.1085 8.02332 11.164 7.93118 11.2019 7.82974C11.2399 7.72831 11.2594 7.61956 11.2596 7.50972C11.2597 7.39988 11.2403 7.29109 11.2026 7.18956C11.1648 7.08804 11.1095 6.99576 11.0396 6.91801C10.9698 6.84026 10.8869 6.77855 10.7956 6.73641C10.7043 6.69427 10.6064 6.67252 10.5075 6.6724C10.4087 6.67228 10.3108 6.6938 10.2194 6.73573C10.128 6.77766 10.045 6.83917 9.975 6.91676Z" fill="white"/>
</g>
</svg>
